<svg xmlns="http://www.w3.org/2000/svg" viewBox="0 0 200 60"><defs><style>.cls-1{fill:#2f2b25;}.cls-2{fill:none;stroke:#e9e0d0;stroke-linejoin:round;stroke-width:1.42px;}.cls-3{fill:#e9e0d0;}</style></defs><title>header_logo</title><g id="Layer_2" data-name="Layer 2"><g id="Layer_1-2" data-name="Layer 1"><rect class="cls-1" width="200" height="60"/><rect class="cls-2" x="4" y="4" width="192" height="52"/><path class="cls-3" d="M18.73,37.61a7.39,7.39,0,0,1,.19-1.91c.16-.7.34-1.4.54-2.08s.44-1.28.62-1.85a12.14,12.14,0,0,0,.41-1.51l2.33-4.77a2.06,2.06,0,0,1,0-.35c0-.11,0-.22,0-.34a3.73,3.73,0,0,0,.08-.77L22.26,23l-1.55.22-1.85-.26a2.64,2.64,0,0,0-1.31-.13,1.87,1.87,0,0,0-1.14.47l-1.64-.56-.47-3.78,4.39-.69h2.36c.66,0,1.39,0,2.17,0s1.53.08,2.22.13l.34.11.48.15a1.09,1.09,0,0,0,.81.3l1.81.9a1.39,1.39,0,0,1,.21,1.3l-.68,1.59-.74,5.67L26.34,32,25,34.73l-.52,2.88-.77,1.68-1.94.6L19.72,38.6Zm14.32-9.67,1.55-.77.69.21c.4.43.73.64,1,.62a.82.82,0,0,0,.64-.4,1.65,1.65,0,0,0,.3-.67,3.26,3.26,0,0,0,.09-.67v-.21a1.33,1.33,0,0,1,0-.39,2.22,2.22,0,0,0,.06-.43c0-.17,0-.36.07-.56V23.6a3.54,3.54,0,0,0-.13-1,8.8,8.8,0,0,0,.79-1.83,3.63,3.63,0,0,0,.15-1.7,1.76,1.76,0,0,1,.59-1,3,3,0,0,1,.88-.56,2.65,2.65,0,0,1,1.05-.13,13.51,13.51,0,0,1,1.57.09,1.17,1.17,0,0,1,.73.64,1.75,1.75,0,0,1,0,.47v5.59l-.34,6-.43,1.68.43,4.69-.13,3.31-.47.95-3.92.64L37,40.58c.06-1.2.09-2.15.09-2.84s0-1.11,0-1.29a3.3,3.3,0,0,1,0-.58v-.71c0-.23-.05-.47-.06-.73s0-.51,0-.77-.05-.5-.07-.73,0-.45,0-.65c-.11-.69-.3-1-.56-1.07a1.43,1.43,0,0,1-.43-.05l-1.2,1.55-3.92,1.12L28.1,32.67A4.25,4.25,0,0,0,28.92,31a5,5,0,0,0,.09-1.8l3.18-.91Zm3-8.3a4.84,4.84,0,0,0,.1,1.35,2.41,2.41,0,0,0,.67,1.23l-.13,1-1.25.34-.68-.13-1.9.52-.3.82a1.26,1.26,0,0,1-1.05.08,1,1,0,0,1-.8-.56l-.38-2.19a1.71,1.71,0,0,1-.15-1.44,1,1,0,0,1,1-.8l3.09-.51Zm9.54-3.05c0-.17.18-.33.54-.45a4.64,4.64,0,0,1,1.31-.24q.73,0,1.44.06a3.14,3.14,0,0,1,1,.2,1.55,1.55,0,0,1,.47.53c.15.25.3.54.48.89s.1.41.12.55l.18.61c0,.2.11.41.17.62a4.11,4.11,0,0,0,.21.62l-.21,5L50.68,27l.77,3.82-.3,7.74a3.81,3.81,0,0,1,.22,1.31,1,1,0,0,1-.35.71,1.66,1.66,0,0,1-.79.37c-.33.07-.7.14-1.1.19s-1,.15-1.5.2-.81,0-1-.2a3,3,0,0,1-.88-.94A2.33,2.33,0,0,1,45.43,39a15.29,15.29,0,0,1-.06-1.55c0-.86,0-1.77,0-2.75s0-1.84,0-2.69a6.41,6.41,0,0,1,.17-1.57,3.68,3.68,0,0,0,.22-1.37v-.35a1.21,1.21,0,0,1,0-.38v-.39a1.33,1.33,0,0,1,0-.39L46,20.2Z"/><path class="cls-3" d="M60.7,31l.13-2.37.3-1,3.61-4.08,1.89-2.67,2.54-1.63L70.29,18a.48.48,0,0,0,.06-.48.73.73,0,0,0-.43-.34,1.9,1.9,0,0,0-.75-.13,2.35,2.35,0,0,0-.86.17l-.73.43c-.43,0-1,0-1.64.05a4.24,4.24,0,0,0-1.59.3,5,5,0,0,1-.68.21c-.26.06-.54.13-.82.22l-.88.17a8.58,8.58,0,0,0-.84.21.82.82,0,0,1-1.21-.51L60,13.49l1.25-.86,4.68-.26a12,12,0,0,1,2.48.15,4.35,4.35,0,0,1,1.35.37,1.31,1.31,0,0,0,.71.26c.3,0,.54,0,.71,0A6.3,6.3,0,0,0,72.65,13l.84-.18.93-.17c.51,0,.89,0,1.13,0a1,1,0,0,1,.56.17.88.88,0,0,1,.28.43l.22.71c.11.32.23.62.34.93a4,4,0,0,0,.26.58,1.93,1.93,0,0,1,0,1.11,2.59,2.59,0,0,1-.38,1.12l-1.34,1.59a.61.61,0,0,1-.38.3l-.56.18L74,20a.73.73,0,0,0-.41.33A5.07,5.07,0,0,0,72.52,22a4.57,4.57,0,0,1-.3.48A2.46,2.46,0,0,0,72,23a.79.79,0,0,0,.05.56,1.44,1.44,0,0,0,.64.6c.32.23.6.42.84.56l.71.43c.23.15.49.32.77.52l1,.73,2,3.18a2.3,2.3,0,0,1-.09.6,2.25,2.25,0,0,1-.6.87l-2.07,1a2.16,2.16,0,0,1-1.33,0,2.91,2.91,0,0,1-.58-.15,5.22,5.22,0,0,1-.54-.24,3.21,3.21,0,0,0-.32-.49l-.24-.33-.3-.43a3.17,3.17,0,0,1-.23-.36,3.72,3.72,0,0,1-.24-.71l-.82-2.5c.18-.94.12-1.48-.15-1.61s-.66.05-1.18.54l-1.59,2-1.25,1-2.36,3.39ZM87.19,41.61l-5.85.69a1.61,1.61,0,0,0-.91,1.1,5.14,5.14,0,0,0-.25,1.48L91.74,43.2l4.43.35L96,47.72l-9.33.3L83.27,49l-8,.34-.73-3.23.82-1.41-.3-1.34,2.19-4.12,8.52-1.6,0-2.28c-.11,0-.17-.08-.17-.17l-.08-.08,0-.13h-.56l-4.51.47-2.62,1.21-1.64-1.51.47-1.93,2.07-1.29L84.39,31l7.31.65,1,2.79-.78.6.43,4-2.79,1Zm4-11.18-2.84-.21-.47-1L87,27.94l.17-1.85L87,24.2,85.9,23,83,23l-6.36,1.12-.35-2.58L78,19.3l2.58.21,2.88-1.12,1.85-.64a1.67,1.67,0,0,0,1,.19,1.56,1.56,0,0,0,.84-.32.35.35,0,0,0,.17-.45c-.06-.22-.35-.41-.86-.58l.3-2.2.26-1.54,2.1-1.38,3.44.26L92.86,14l0,2.89-.12,4.08a3.42,3.42,0,0,0-.11.54,1.94,1.94,0,0,1-.07.32,1.14,1.14,0,0,1,0,.28,1.54,1.54,0,0,0,0,.19,2.34,2.34,0,0,0,0,.65,11.28,11.28,0,0,0,.22,1.16l-1,3.05,0,2.19Z"/><path class="cls-3" d="M123,28.88l-1.2,1.51-2.54.43h-.94l-3.4,1L113,32.2l-.78-.18-2.92.31-4,.12L104.17,30l.22-2-.18-2.15-.3-1.89-.08-2.19-.3-.48-1.51-6,2.15-1.76,5.25.69-.26,2.58.3.34-.13,1.12.39,3,3.31-.6.17-.56,2.84-.43.86.69.82-4,.43-.35.21-2.49.65-.64h3.44l.9.86.21,2.58-.47.86-.56,4-2.06,4.95.26.64,2.06.95Zm-6.49-5.54-1,.39-4.73.77-.68.73.6,3.74,3.35-.09,2.15-1.2ZM136.16,31l.56.64c0,.15,0,.34,0,.58a2.76,2.76,0,0,0,.06.71,2.12,2.12,0,0,0,.18.67.49.49,0,0,0,.38.32l.13,7.87L137,45v1.67h-1.12l-3.52-.6-1.08.86-8.43.39L120,47.07a4.11,4.11,0,0,0-1.31,0,3.57,3.57,0,0,0-1.31.47l.39-3.65a1.06,1.06,0,0,0,.58.24.39.39,0,0,0,.3-.2.74.74,0,0,0,.08-.47,4.58,4.58,0,0,0-.06-.56l-1.12-3.23,1-4.08-.22-1.33.35-.52-.35-1.2,2-.09c.75.32,1.26.4,1.55.26l.19-.09.2-.08.21-.09a.91.91,0,0,0,.26-.13l.73.73L123,35.42l1.68.17,4.47-.3,2.46.35a3.71,3.71,0,0,0,.27-1.27,1.68,1.68,0,0,0-.32-1.1l-.6-.82.65-1.29a3.78,3.78,0,0,0-.65.22,2.32,2.32,0,0,0-.6.3l-.52.34-.43.26a.72.72,0,0,1-.38.13l-2-.69,0-3.95.38-1.25L127,20.8l.13-.86.43-1-.21-2.11.39-3.52,1.5-1.12,3.74-.39a1.33,1.33,0,0,1,1.2.69,1.82,1.82,0,0,1,.31,1.33l-.91,5.42.43,1.33,1.94-.69,5.46-.21v3.18L140,24.93l-5.46,0-1.33.81-.43,4.82h3.27Zm-4.55,11.39a2.48,2.48,0,0,0,.17-.81c0-.38,0-.66,0-.86a3.51,3.51,0,0,0-.09-.61,1.67,1.67,0,0,0,0-.32,3.53,3.53,0,0,1,0-.36l-5.46-.61-2.36.39-.52,3.23a13.81,13.81,0,0,1,1.59-.18c.54,0,1.09,0,1.63,0Z"/><path class="cls-3" d="M154.82,29.7l-.38.69c-.12.2-.23.39-.35.56l-.25.41a3.9,3.9,0,0,0-.22.36c-.09.12-.16.23-.24.33l-.19.28-.19.36c-.08.13-.15.25-.24.37a2,2,0,0,1-1.2.92,1.48,1.48,0,0,1-1.21,0l-3-2a22.64,22.64,0,0,1,1.55-5c.4-1,.81-1.93,1.24-2.88s.89-1.88,1.38-2.79a1,1,0,0,1,.19-.37l.33-.41a5.36,5.36,0,0,0,.4-.43l.41-.43c.12-.11.24-.24.37-.38l.36-.43c.12-.15.22-.28.31-.41a3.17,3.17,0,0,0,.21-.41,3.71,3.71,0,0,1,.11-.45,4.14,4.14,0,0,1,.15-.41,1.64,1.64,0,0,1,.26-.65,2.24,2.24,0,0,1,.21-.47,2.92,2.92,0,0,1,.39-.47l3.22-3.14,2.71-.52a2.41,2.41,0,0,1,1.42.78,7,7,0,0,1,.45.79.79.79,0,0,1,.07.67l-3.31,5.07-.43,1.59.43,1.68,7.13,3.14a1.74,1.74,0,0,1,1.1,1,2.19,2.19,0,0,1-.06,1.38L166.56,31l-1.5-.3-1.33.17L161.19,29l-.52-.73-2.06-1.16-.65-.69.78-.9a.59.59,0,0,0,0-.41.75.75,0,0,0-.32-.45,1.38,1.38,0,0,0-.71-.09,2,2,0,0,0-1.06.65L156.29,27l-1.47,2.28Zm16.9,3.23-.08.3a1.16,1.16,0,0,0,0,.64,1.35,1.35,0,0,0,.21.73,1.19,1.19,0,0,0,.73.48,4.7,4.7,0,0,1,1.42-.39,12.24,12.24,0,0,1,1.81-.13,7.05,7.05,0,0,1,1.65.19,2.65,2.65,0,0,1,1.06.46l1.2,1.8a5.46,5.46,0,0,1,0,1.4c-.06.5-.13,1-.21,1.4a7,7,0,0,0-.13.73q0,.35-.09.6c0,.2,0,.37,0,.49a.51.51,0,0,0,.06.33,3.14,3.14,0,0,1-.38.3l-.26.3a2.09,2.09,0,0,0-.24.28,3.11,3.11,0,0,1-.23.28,6.15,6.15,0,0,1-.76.79,8.08,8.08,0,0,1-1.31.93l-8.51,2.32a3.84,3.84,0,0,1-.71-.06,6.55,6.55,0,0,1-.71-.2,16.89,16.89,0,0,1-1.81-.51,3.22,3.22,0,0,1-1-.39,5.53,5.53,0,0,1-.76-.56,1.93,1.93,0,0,1-.38-.3l-.3-.3a2.46,2.46,0,0,1-.35-.3l-.3-.3a5.63,5.63,0,0,1-.6-.46.56.56,0,0,1-.22-.45.3.3,0,0,1-.08-.21v-.69a2.68,2.68,0,0,1,0-.52,4.52,4.52,0,0,1,.24-1.63,4.24,4.24,0,0,1,1-1.38.92.92,0,0,0,1.07.09,1.29,1.29,0,0,0,.69-.82l.3-1.2a1.59,1.59,0,0,0,.5-.58,2.43,2.43,0,0,0,.19-.58,1.66,1.66,0,0,1,0-.24.9.9,0,0,0,0-.24,1,1,0,0,1,.3-.38,10,10,0,0,0,1.42-1.46,9,9,0,0,1,1-.52l.71-.3a1,1,0,0,1,.3,0h1.12Zm.3,4.47q0-.13.09-.15c.06,0,0,0,0,0a1.45,1.45,0,0,1-.56.23,13.09,13.09,0,0,1-1.33.24L167,41.1a.73.73,0,0,0,.06.66,1.57,1.57,0,0,0,.58.67.93.93,0,0,0,.52.62,2,2,0,0,0,1,.24l4.3-1.2a2.32,2.32,0,0,0,.6-.52,2.22,2.22,0,0,0,.47-.77,1.6,1.6,0,0,0-.11-.58c-.07-.22-.15-.43-.23-.63l-.17-.23c-.06-.08-.12-.15-.18-.24l-.08-.26a.57.57,0,0,1,0-.26c-.05-.2-.31-.45-.77-.77A2.29,2.29,0,0,0,172,37.4Zm8.39-12.3q-.43-.09-.9-.15c-.32,0-.72-.08-1.21-.11l-.9,1.55-.17,3.4-2.54.81H173.1l-1.68,0,.3-5.24-.38-1.21.34-4.56-.34-2.49.13-2.75,1.2-1.81,3.91-.43a1.05,1.05,0,0,1,1.25.78,4.28,4.28,0,0,1,.17.88,3.93,3.93,0,0,1,0,.84l-.3,5.93.69.43,3.78-1.33.6,0c.23,0,.48,0,.74,0l.34,0,.34,0h.73l1.51.94L186,24.07Z"/></g></g></svg>